<svg width="25" height="25" viewBox="0 0 25 25" fill="none" xmlns="http://www.w3.org/2000/svg">
<path d="M19.2061 21.1684C20.0345 21.1684 20.7061 20.4968 20.7061 19.6684C20.7061 18.84 20.0345 18.1684 19.2061 18.1684C18.3776 18.1684 17.7061 18.84 17.7061 19.6684C17.7061 20.4968 18.3776 21.1684 19.2061 21.1684Z" fill="#1493A4" stroke="#1493A4" stroke-width="1.5" stroke-linecap="round" stroke-linejoin="round"/>
<path d="M11.2061 21.1684C12.0345 21.1684 12.7061 20.4968 12.7061 19.6684C12.7061 18.84 12.0345 18.1684 11.2061 18.1684C10.3776 18.1684 9.70605 18.84 9.70605 19.6684C9.70605 20.4968 10.3776 21.1684 11.2061 21.1684Z" fill="#1493A4" stroke="#1493A4" stroke-width="1.5" stroke-linecap="round" stroke-linejoin="round"/>
<path d="M6.40605 4.8607H21.7061L19.9061 14.1684H8.20605L6.40605 4.8607ZM6.40605 4.8607C6.25605 4.2966 5.50605 3.1684 3.70605 3.1684" stroke="#1493A4" stroke-width="1.5" stroke-linecap="round" stroke-linejoin="round"/>
<path d="M19.7061 14.1684H7.82034H6.20276C4.57139 14.1684 3.70605 14.9496 3.70605 16.1684C3.70605 17.3871 4.57139 18.1684 6.20276 18.1684H19.2489" stroke="#1493A4" stroke-width="1.5" stroke-linecap="round" stroke-linejoin="round"/>
</svg>
