<svg width="25" height="25" viewBox="0 0 25 25" fill="none" xmlns="http://www.w3.org/2000/svg">
<path fill-rule="evenodd" clip-rule="evenodd" d="M6.73638 7.63818L6.20605 7.10785L5.14539 8.16851L5.67572 8.69884L8.39539 11.4185H1.20605V12.9185H8.39539L5.67572 15.6382L5.14539 16.1685L6.20605 17.2292L6.73638 16.6988L10.7364 12.6988L11.2667 12.1685L10.7364 11.6382L6.73638 7.63818ZM16.0167 11.4185H23.2061V12.9185H16.0167L18.7364 15.6382L19.2667 16.1685L18.2061 17.2292L17.6757 16.6988L13.6757 12.6988L13.1454 12.1685L13.6757 11.6382L17.6757 7.63818L18.2061 7.10785L19.2667 8.16851L18.7364 8.69884L16.0167 11.4185Z" fill="#1493A4"/>
</svg>
